<?xml version="1.0"?>
<svg xmlns="http://www.w3.org/2000/svg" height="512px" viewBox="-48 0 512 512" width="512px" class=""><g><path d="m262.078125 512h-230.078125c-17.679688 0-32-14.320312-32-32v-448c0-17.679688 14.320312-32 32-32h352c17.679688 0 32 14.320312 32 32v343.183594zm0 0" fill="#26a69a" data-original="#26A69A" class="" style="fill:#FFDB58" data-old_color="#26A69A"/><path d="m415.089844 376h-155.089844v136h2.078125zm0 0" fill="#9a9a9e" data-original="#9A9A9E" class=""/><path d="m415.089844 376h-155.089844v136h2.078125zm0 0" fill="#9a9a9e" data-original="#9A9A9E" class=""/><path d="m200 112h-48v-48h-32v48h-48v32h48v48h32v-48h48zm0 0" fill="#fff" data-original="#FFF" class=""/><path d="m232 96h128v32h-128zm0 0" fill="#fff" data-original="#FFF" class=""/><path d="m72 288h288v32h-288zm0 0" fill="#00897b" data-original="#00897B" class="active-path" style="fill:#C5AC43" data-old_color="#C6AD44"/><g fill="#fff"><path d="m72 352h144v32h-144zm0 0" data-original="#000000" class="" style="fill:#00897B" data-old_color="#FFDB58"/><path d="m72 416h144v32h-144zm0 0" data-original="#000000" class="" style="fill:#00897B" data-old_color="#FFDB58"/><path d="m232 160h128v32h-128zm0 0" data-original="#000000" class="" style="fill:#00897B" data-old_color="#FFDB58"/><path d="m72 224h32v32h-32zm0 0" data-original="#000000" class="" style="fill:#00897B" data-old_color="#FFDB58"/><path d="m136 224h32v32h-32zm0 0" data-original="#000000" class="" style="fill:#00897B" data-old_color="#FFDB58"/><path d="m200 224h32v32h-32zm0 0" data-original="#000000" class="" style="fill:#00897B" data-old_color="#FFDB58"/><path d="m264 224h32v32h-32zm0 0" data-original="#000000" class="" style="fill:#00897B" data-old_color="#FFDB58"/><path d="m328 224h32v32h-32zm0 0" data-original="#000000" class="" style="fill:#00897B" data-old_color="#FFDB58"/></g><path d="m415.089844 376h-155.089844v136h2.078125zm0 0" fill="#00897b" data-original="#00897B" class="active-path" style="fill:#C5AC43" data-old_color="#C6AD44"/></g> </svg>
